<svg xmlns="http://www.w3.org/2000/svg" xmlns:xlink="http://www.w3.org/1999/xlink" width="48" height="1224" viewBox="0 0 48 1224"><svg width="24" height="24" viewBox="0 0 24 24" id="add-black-24" y="0"><path d="M19 13h-6v6h-2v-6H5v-2h6V5h2v6h6v2z"></path></svg><svg width="48" height="48" viewBox="0 0 48 48" id="add-black-48" y="24"><path d="M38 26H26v12h-4V26H10v-4h12V10h4v12h12v4z"></path></svg><svg width="24" height="24" viewBox="0 0 24 24" id="close-black-24" y="72"><path d="M19 6.41L17.59 5 12 10.59 6.41 5 5 6.41 10.59 12 5 17.59 6.41 19 12 13.41 17.59 19 19 17.59 13.41 12z"></path></svg><svg width="48" height="48" viewBox="0 0 48 48" id="close-black-48" y="96"><path d="M38 12.83L35.17 10 24 21.17 12.83 10 10 12.83 21.17 24 10 35.17 12.83 38 24 26.83 35.17 38 38 35.17 26.83 24z"></path></svg><svg width="24" height="24" viewBox="0 0 24 24" id="directions_bike-black-24" y="144"><path d="M16 4.8c.99 0 1.8-.81 1.8-1.8s-.81-1.8-1.8-1.8c-1 0-1.8.81-1.8 1.8S15 4.8 16 4.8zm3 7.2c-2.76 0-5 2.24-5 5s2.24 5 5 5 5-2.24 5-5-2.24-5-5-5zm0 8.5c-1.93 0-3.5-1.57-3.5-3.5s1.57-3.5 3.5-3.5 3.5 1.57 3.5 3.5-1.57 3.5-3.5 3.5zM14.8 10H19V8.2h-3.2l-1.93-3.27a1.697 1.697 0 0 0-2.66-.33l-3.7 3.7c-.32.3-.51.73-.51 1.2 0 .63.33 1.16.85 1.47L11.2 13v5H13v-6.48l-2.25-1.67 2.32-2.33L14.8 10zM5 12c-2.76 0-5 2.24-5 5s2.24 5 5 5 5-2.24 5-5-2.24-5-5-5zm0 8.5c-1.93 0-3.5-1.57-3.5-3.5s1.57-3.5 3.5-3.5 3.5 1.57 3.5 3.5-1.57 3.5-3.5 3.5z"></path></svg><svg width="48" height="48" viewBox="0 0 48 48" id="directions_bike-black-48" y="168"><path d="M32 9.6c1.98 0 3.6-1.61 3.6-3.6S33.98 2.4 32 2.4c-1.99 0-3.6 1.61-3.6 3.6s1.61 3.6 3.6 3.6zM38 24c-5.52 0-10 4.48-10 10s4.48 10 10 10 10-4.48 10-10-4.48-10-10-10zm0 17c-3.87 0-7-3.13-7-7s3.13-7 7-7 7 3.13 7 7-3.13 7-7 7zm-8.4-21H38v-3.6h-6.4l-3.87-6.53c-.59-1-1.68-1.67-2.93-1.67-.94 0-1.79.38-2.4 1L15 16.59c-.62.62-1 1.47-1 2.41 0 1.26.67 2.32 1.7 2.94L22.4 26v10H26V23.04l-4.5-3.34 4.64-4.66L29.6 20zM10 24C4.48 24 0 28.48 0 34s4.48 10 10 10 10-4.48 10-10-4.48-10-10-10zm0 17c-3.87 0-7-3.13-7-7s3.13-7 7-7 7 3.13 7 7-3.13 7-7 7z"></path></svg><svg width="24" height="24" viewBox="0 0 24 24" id="directions_bus-black-24" y="216"><path d="M4 16c0 .88.39 1.67 1 2.22V20c0 .55.45 1 1 1h1c.55 0 1-.45 1-1v-1h8v1c0 .55.45 1 1 1h1c.55 0 1-.45 1-1v-1.78c.61-.55 1-1.34 1-2.22V6c0-3.5-3.58-4-8-4s-8 .5-8 4v10zm3.5 1c-.83 0-1.5-.67-1.5-1.5S6.67 14 7.5 14s1.5.67 1.5 1.5S8.33 17 7.5 17zm9 0c-.83 0-1.5-.67-1.5-1.5s.67-1.5 1.5-1.5 1.5.67 1.5 1.5-.67 1.5-1.5 1.5zm1.5-6H6V6h12v5z"></path></svg><svg width="48" height="48" viewBox="0 0 48 48" id="directions_bus-black-48" y="240"><path d="M8 32c0 1.77.78 3.34 2 4.44V40c0 1.1.9 2 2 2h2a2 2 0 0 0 2-2v-2h16v2a2 2 0 0 0 2 2h2c1.1 0 2-.9 2-2v-3.56c1.22-1.1 2-2.67 2-4.44V12c0-7-7.16-8-16-8S8 5 8 12v20zm7 2c-1.66 0-3-1.34-3-3s1.34-3 3-3 3 1.34 3 3-1.34 3-3 3zm18 0c-1.66 0-3-1.34-3-3s1.34-3 3-3 3 1.34 3 3-1.34 3-3 3zm3-12H12V12h24v10z"></path></svg><svg width="24" height="24" viewBox="0 0 24 24" id="directions_car-black-24" y="288"><path d="M18.92 6.01C18.72 5.42 18.16 5 17.5 5h-11c-.66 0-1.21.42-1.42 1.01L3 12v8c0 .55.45 1 1 1h1c.55 0 1-.45 1-1v-1h12v1c0 .55.45 1 1 1h1c.55 0 1-.45 1-1v-8l-2.08-5.99zM6.5 16c-.83 0-1.5-.67-1.5-1.5S5.67 13 6.5 13s1.5.67 1.5 1.5S7.33 16 6.5 16zm11 0c-.83 0-1.5-.67-1.5-1.5s.67-1.5 1.5-1.5 1.5.67 1.5 1.5-.67 1.5-1.5 1.5zM5 11l1.5-4.5h11L19 11H5z"></path></svg><svg width="48" height="48" viewBox="0 0 48 48" id="directions_car-black-48" y="312"><path d="M37.84 12.02A3.007 3.007 0 0 0 35 10H13c-1.31 0-2.43.84-2.84 2.02L6 24v16c0 1.1.9 2 2 2h2a2 2 0 0 0 2-2v-2h24v2c0 1.1.9 2 2 2h2a2 2 0 0 0 2-2V24l-4.16-11.98zM13 32c-1.66 0-3-1.34-3-3s1.34-3 3-3 3 1.34 3 3-1.34 3-3 3zm22 0c-1.66 0-3-1.34-3-3s1.34-3 3-3 3 1.34 3 3-1.34 3-3 3zM10 22l3-9h22l3 9H10z"></path></svg><svg width="24" height="24" viewBox="0 0 24 24" id="directions_ferry-black-24" y="360"><path d="M20 21c-1.39 0-2.78-.47-4-1.32-2.44 1.71-5.56 1.71-8 0C6.78 20.53 5.39 21 4 21H2v2h2c1.38 0 2.74-.35 4-.99a8.752 8.752 0 0 0 8 0c1.26.65 2.62.99 4 .99h2v-2h-2zM3.95 19H4c1.6 0 3.02-.88 4-2 .98 1.12 2.4 2 4 2s3.02-.88 4-2c.98 1.12 2.4 2 4 2h.05l1.89-6.68c.08-.26.06-.54-.06-.78s-.34-.42-.6-.5L20 10.62V6c0-1.1-.9-2-2-2h-3V1H9v3H6c-1.1 0-2 .9-2 2v4.62l-1.29.42a1.007 1.007 0 0 0-.66 1.28L3.95 19zM6 6h12v3.97L12 8 6 9.97V6z"></path></svg><svg width="48" height="48" viewBox="0 0 48 48" id="directions_ferry-black-48" y="384"><path d="M40 42c-2.78 0-5.56-.94-8-2.65-4.88 3.42-11.12 3.42-16 0C13.56 41.06 10.78 42 8 42H4v4h4c2.75 0 5.48-.69 8-1.99a17.445 17.445 0 0 0 16 0C34.52 45.3 37.25 46 40 46h4v-4h-4zM7.89 38H8c3.2 0 6.05-1.76 8-4 1.95 2.24 4.8 4 8 4s6.05-1.76 8-4c1.96 2.24 4.79 4 8 4h.11l3.79-13.37c.17-.51.12-1.07-.12-1.55-.25-.48-.68-.84-1.2-.99L40 21.24V12c0-2.21-1.79-4-4-4h-6V2H18v6h-6c-2.21 0-4 1.79-4 4v9.24l-2.57.84c-.52.16-.95.51-1.2.99s-.29 1.04-.12 1.55L7.89 38zM12 12h24v7.93L24 16l-12 3.93V12z"></path></svg><svg width="24" height="24" viewBox="0 0 24 24" id="directions_train-black-24" y="432"><path d="M4 15.5C4 17.43 5.57 19 7.5 19L6 20.5v.5h12v-.5L16.5 19c1.93 0 3.5-1.57 3.5-3.5V5c0-3.5-3.58-4-8-4s-8 .5-8 4v10.5zm8 1.5c-1.1 0-2-.9-2-2s.9-2 2-2 2 .9 2 2-.9 2-2 2zm6-7H6V5h12v5z"></path></svg><svg width="48" height="48" viewBox="0 0 48 48" id="directions_train-black-48" y="456"><path d="M8 31c0 3.87 3.14 7 7 7l-3 3v1h24v-1l-3-3c3.87 0 7-3.13 7-7V10c0-7-7.16-8-16-8S8 3 8 10v21zm16 3c-2.21 0-4-1.79-4-4s1.79-4 4-4 4 1.79 4 4-1.79 4-4 4zm12-14H12V10h24v10z"></path></svg><svg width="24" height="24" viewBox="0 0 24 24" id="directions_walk-black-24" y="504"><path d="M14 3.8A1.799 1.799 0 1 0 12.2 2c0 .99.8 1.8 1.8 1.8zm.12 6.2H19V8.2h-3.62l-2-3.33c-.3-.5-.84-.83-1.46-.83-.17 0-.34.03-.49.07L6 5.8V11h1.8V7.33l2.11-.66L6 22h1.8l2.87-8.11L13 17v5h1.8v-6.41l-2.49-4.54.73-2.87L14.12 10z"></path></svg><svg width="48" height="48" viewBox="0 0 48 48" id="directions_walk-black-48" y="528"><path d="M28 7.6c1.98 0 3.6-1.61 3.6-3.6S29.98.4 28 .4c-1.99 0-3.6 1.61-3.6 3.6s1.61 3.6 3.6 3.6zm.24 12.4H38v-3.6h-7.25l-4-6.66c-.59-1-1.68-1.66-2.92-1.66-.34 0-.67.05-.98.14L12 11.6V22h3.6v-7.33l4.21-1.31L12 44h3.6l5.74-16.22L26 34v10h3.6V31.19l-4.98-9.08 1.47-5.74L28.24 20z"></path></svg><svg width="24" height="24" viewBox="0 0 24 24" id="flight-black-24" y="576"><path d="M21 16v-2l-8-5V3.5c0-.83-.67-1.5-1.5-1.5S10 2.67 10 3.5V9l-8 5v2l8-2.5V19l-2 1.5V22l3.5-1 3.5 1v-1.5L13 19v-5.5l8 2.5z"></path></svg><svg width="48" height="48" viewBox="0 0 48 48" id="flight-black-48" y="600"><path d="M42 32v-4L26 18V7c0-1.66-1.34-3-3-3s-3 1.34-3 3v11L4 28v4l16-5v11l-4 3v3l7-2 7 2v-3l-4-3V27l16 5z"></path></svg><svg width="24" height="24" viewBox="0 0 24 24" id="hotel-black-24" y="648"><path d="M7 13c1.66 0 3-1.34 3-3S8.66 7 7 7s-3 1.34-3 3 1.34 3 3 3zm12-6h-8v7H3V5H1v15h2v-3h18v3h2v-9c0-2.21-1.79-4-4-4z"></path></svg><svg width="48" height="48" viewBox="0 0 48 48" id="hotel-black-48" y="672"><path d="M14 26c3.31 0 6-2.69 6-6s-2.69-6-6-6-6 2.69-6 6 2.69 6 6 6zm24-12H22v14H6V10H2v30h4v-6h36v6h4V22c0-4.42-3.58-8-8-8z"></path></svg><svg width="24" height="24" viewBox="0 0 24 24" id="local_cafe-black-24" y="720"><path d="M20 3H4v10c0 2.21 1.79 4 4 4h6c2.21 0 4-1.79 4-4v-3h2c1.11 0 2-.89 2-2V5c0-1.11-.89-2-2-2zm0 5h-2V5h2v3zM2 21h18v-2H2v2z"></path></svg><svg width="48" height="48" viewBox="0 0 48 48" id="local_cafe-black-48" y="744"><path d="M40 6H8v20c0 4.42 3.58 8 8 8h12c4.42 0 8-3.58 8-8v-6h4c2.21 0 4-1.79 4-4v-6c0-2.21-1.79-4-4-4zm0 10h-4v-6h4v6zM4 42h36v-4H4v4z"></path></svg><svg width="24" height="24" viewBox="0 0 24 24" id="local_parking-black-24" y="792"><path d="M13 3H6v18h4v-6h3c3.31 0 6-2.69 6-6s-2.69-6-6-6zm.2 8H10V7h3.2c1.1 0 2 .9 2 2s-.9 2-2 2z"></path></svg><svg width="48" height="48" viewBox="0 0 48 48" id="local_parking-black-48" y="816"><path d="M26 6H12v36h8V30h6c6.63 0 12-5.37 12-12S32.63 6 26 6zm.4 16H20v-8h6.4c2.21 0 4 1.79 4 4s-1.79 4-4 4z"></path></svg><svg width="24" height="24" viewBox="0 0 24 24" id="map-black-24" y="864"><path d="M20.5 3l-.16.03L15 5.1 9 3 3.36 4.9c-.21.07-.36.25-.36.48V20.5c0 .28.22.5.5.5l.16-.03L9 18.9l6 2.1 5.64-1.9c.21-.07.36-.25.36-.48V3.5c0-.28-.22-.5-.5-.5zM15 19l-6-2.11V5l6 2.11V19z"></path></svg><svg width="48" height="48" viewBox="0 0 48 48" id="map-black-48" y="888"><path d="M41 6c-.11 0-.21.01-.31.05L30 10.2 18 6 6.73 9.8c-.42.14-.73.5-.73.96V41a1.003 1.003 0 0 0 1.31.95L18 37.8 30 42l11.28-3.79c.42-.15.72-.51.72-.97V7c0-.55-.45-1-1-1zM30 38l-12-4.21V10l12 4.21V38z"></path></svg><svg width="24" height="24" viewBox="0 0 24 24" id="menu-black-24" y="936"><path d="M3 18h18v-2H3v2zm0-5h18v-2H3v2zm0-7v2h18V6H3z"></path></svg><svg width="48" height="48" viewBox="0 0 48 48" id="menu-black-48" y="960"><path d="M6 36h36v-4H6v4zm0-10h36v-4H6v4zm0-14v4h36v-4H6z"></path></svg><svg width="24" height="24" viewBox="0 0 24 24" id="navigation-black-24" y="1008"><path d="M12 2L4.5 20.29l.71.71L12 18l6.79 3 .71-.71z"></path></svg><svg width="48" height="48" viewBox="0 0 48 48" id="navigation-black-48" y="1032"><path d="M24 4L9 40.59 10.41 42 24 36l13.59 6L39 40.59z"></path></svg><svg width="24" height="24" viewBox="0 0 24 24" id="person-black-24" y="1080"><path d="M12 12c2.21 0 4-1.79 4-4s-1.79-4-4-4-4 1.79-4 4 1.79 4 4 4zm0 2c-2.67 0-8 1.34-8 4v2h16v-2c0-2.66-5.33-4-8-4z"></path></svg><svg width="48" height="48" viewBox="0 0 48 48" id="person-black-48" y="1104"><path d="M24 24c4.42 0 8-3.59 8-8 0-4.42-3.58-8-8-8s-8 3.58-8 8c0 4.41 3.58 8 8 8zm0 4c-5.33 0-16 2.67-16 8v4h32v-4c0-5.33-10.67-8-16-8z"></path></svg><svg width="24" height="24" viewBox="0 0 24 24" id="remove-black-24" y="1152"><path d="M19 13H5v-2h14v2z"></path></svg><svg width="48" height="48" viewBox="0 0 48 48" id="remove-black-48" y="1176"><path d="M38 26H10v-4h28v4z"></path></svg></svg>